<?xml version="1.0" standalone="no"?>
<!DOCTYPE svg PUBLIC "-//W3C//DTD SVG 20010904//EN"
 "http://www.w3.org/TR/2001/REC-SVG-20010904/DTD/svg10.dtd">
<svg version="1.0" xmlns="http://www.w3.org/2000/svg"
 width="900.000000pt" height="520.000000pt" viewBox="0 0 900.000000 520.000000"
 preserveAspectRatio="xMidYMid meet">

<g transform="translate(0.000000,520.000000) scale(0.100000,-0.100000)"
fill="#000000" stroke="none">
<path d="M2580 4303 c-98 -16 -218 -67 -251 -106 -177 -206 -173 -434 12 -619
26 -26 52 -47 56 -47 4 1 26 -6 47 -15 108 -48 50 -47 2119 -44 1772 3 1946 5
1990 20 26 9 47 14 47 12 0 -12 84 41 117 73 118 117 137 160 137 313 1 152
-13 183 -129 305 -34 36 -125 95 -125 81 0 -2 -21 3 -47 12 -44 15 -222 17
-1998 18 -1072 1 -1961 -1 -1975 -3z m3972 -90 c60 -27 127 -94 158 -158 35
-72 35 -198 0 -270 -31 -64 -91 -124 -155 -155 l-50 -25 -2005 0 -2005 0 -50
25 c-258 127 -240 499 28 592 49 17 152 17 2042 15 l1990 -2 47 -22z"/>
<path d="M2523 3011 c-75 -17 -114 -34 -153 -67 -85 -74 -135 -141 -156 -210
-26 -88 -13 -233 28 -307 7 -12 11 -26 10 -30 -3 -11 134 -148 145 -145 4 1
17 -3 29 -9 12 -7 54 -21 95 -32 73 -20 99 -20 2024 -18 1578 2 1959 5 1995
16 25 7 52 14 62 16 58 12 164 103 207 178 59 105 68 214 27 341 -41 124 -144
222 -278 264 -48 15 -231 17 -2003 18 -1826 2 -1955 1 -2032 -15z m4029 -78
c60 -27 127 -94 158 -158 35 -72 35 -198 0 -270 -31 -64 -91 -124 -155 -155
l-50 -25 -2005 0 -2005 0 -50 25 c-258 127 -240 499 28 592 49 17 152 17 2042
15 l1990 -2 47 -22z"/>
<path d="M2533 1739 c-55 -10 -120 -39 -157 -70 -109 -89 -157 -164 -177 -275
-9 -48 -8 -73 6 -134 30 -138 77 -208 188 -281 113 -73 -29 -68 2133 -69 1398
0 1956 3 1995 11 66 13 171 69 223 118 49 46 103 157 116 238 12 71 -1 140
-46 241 -43 97 -174 196 -292 221 -62 13 -3921 13 -3989 0z m4019 -86 c60 -27
127 -94 158 -158 35 -72 35 -198 0 -270 -31 -64 -91 -124 -155 -155 l-50 -25
-2005 0 -2005 0 -50 25 c-258 127 -240 499 28 592 49 17 152 17 2042 15 l1990
-2 47 -22z"/>
</g>
</svg>
