<?xml version="1.0" standalone="no"?>
<!DOCTYPE svg PUBLIC "-//W3C//DTD SVG 20010904//EN"
 "http://www.w3.org/TR/2001/REC-SVG-20010904/DTD/svg10.dtd">
<svg version="1.0" xmlns="http://www.w3.org/2000/svg"
 width="720.000000pt" height="1280.000000pt" viewBox="0 0 720.000000 1280.000000"
 preserveAspectRatio="xMidYMid meet">

<g transform="translate(0.000000,1280.000000) scale(0.100000,-0.100000)"
fill="#000000" stroke="none">
<path d="M3440 9819 c-85 -82 -249 -243 -365 -357 -115 -114 -418 -411 -672
-661 -304 -299 -460 -458 -455 -467 7 -12 138 -147 646 -664 240 -243 882
-901 964 -986 l42 -45 58 57 c31 31 275 273 542 537 267 264 612 606 768 759
155 154 282 283 282 287 0 6 -137 148 -463 481 -233 237 -817 836 -1028 1053
-84 86 -155 157 -158 157 -3 -1 -76 -68 -161 -151z m261 -161 c33 -35 273
-277 532 -539 668 -673 787 -797 787 -817 0 -27 -477 -502 -1149 -1142 -95
-91 -200 -191 -233 -223 l-60 -58 -25 23 c-32 29 -358 359 -409 413 -20 22
-176 182 -345 355 -560 573 -619 635 -619 650 0 9 15 28 33 44 17 15 144 137
281 270 136 132 267 259 290 280 22 21 165 159 316 306 151 147 329 319 395
383 66 64 126 117 132 117 7 0 40 -28 74 -62z"/>
<path d="M3348 9237 c-124 -122 -316 -309 -425 -416 -109 -107 -264 -260 -346
-340 l-147 -145 27 -29 c16 -17 192 -196 393 -399 201 -203 452 -458 557 -566
l193 -197 517 515 c285 283 544 543 576 577 l59 61 -62 59 c-34 32 -66 60 -71
61 -6 2 -237 -223 -515 -500 -277 -276 -509 -505 -515 -507 -14 -4 -899 879
-899 897 0 7 116 127 258 268 673 669 762 757 762 763 0 11 -115 121 -125 121
-6 0 -112 -100 -237 -223z"/>
<path d="M3764 9116 c-45 -44 -245 -241 -444 -438 l-362 -356 69 -73 c157
-169 294 -300 307 -297 9 2 184 171 389 376 206 204 381 372 390 372 9 0 43
-26 77 -57 69 -63 71 -79 23 -134 -32 -35 -521 -520 -648 -642 l-90 -86 55
-55 c30 -31 60 -56 66 -56 23 0 825 828 857 885 6 11 -12 37 -65 97 -148 165
-248 268 -261 268 -5 0 -168 -159 -361 -354 -193 -194 -366 -361 -384 -370
-41 -21 -82 -10 -119 31 -41 48 -43 97 -6 138 10 11 33 38 52 60 66 79 310
322 569 568 l93 88 -51 59 c-29 33 -57 59 -63 59 -7 -1 -49 -38 -93 -83z"/>
<path d="M1672 6136 c-35 -13 -73 -32 -85 -42 -123 -105 -166 -252 -117 -398
78 -235 391 -309 565 -133 l39 40 -26 21 c-15 11 -43 30 -63 40 -35 19 -36 19
-50 -1 -34 -49 -156 -70 -228 -39 -38 16 -94 76 -103 111 -3 14 -4 58 -2 98 3
57 8 79 28 105 68 92 219 104 303 24 l28 -26 42 23 c84 46 84 45 51 85 -16 19
-61 51 -100 71 -96 49 -190 56 -282 21z"/>
<path d="M2331 5928 c-40 -112 -75 -210 -78 -218 -29 -81 -83 -234 -83 -237 0
-2 34 -3 75 -3 l75 0 14 33 c8 17 17 40 20 50 5 15 20 17 135 17 l130 0 12
-42 c6 -24 13 -49 15 -55 2 -9 28 -13 84 -13 44 0 80 1 80 3 0 1 -31 97 -68
212 -38 116 -86 265 -108 333 l-39 122 -96 0 -96 0 -72 -202z m203 -71 c13
-45 27 -97 31 -114 l7 -33 -76 0 c-41 0 -77 4 -80 8 -4 6 37 137 68 218 10 27
25 5 50 -79z"/>
<path d="M2957 6106 c-4 -9 -7 -157 -7 -329 l-1 -312 70 -3 71 -3 0 90 c0 49
3 96 6 105 5 13 22 16 86 16 93 0 149 21 196 74 40 46 55 96 50 171 -5 78 -38
132 -105 172 -46 27 -54 28 -204 31 -136 3 -157 2 -162 -12z m290 -136 c55
-33 54 -119 -1 -155 -17 -11 -42 -15 -83 -13 l-58 3 -3 79 c-2 44 -1 85 2 93
8 21 105 17 143 -7z"/>
<path d="M3588 5855 c-1 -140 -3 -290 -3 -332 l0 -78 64 -3 c43 -2 67 1 72 9
7 11 12 236 14 549 l0 105 -72 3 -73 3 -2 -256z"/>
<path d="M3888 6105 c-5 -5 -8 -37 -8 -71 l0 -63 83 -3 82 -3 3 -262 2 -263
70 0 70 0 1 163 c0 89 2 178 3 197 1 19 3 63 4 98 l2 62 85 0 85 0 0 70 0 70
-97 0 c-54 0 -161 3 -238 6 -77 4 -143 3 -147 -1z"/>
<path d="M4635 6078 c-55 -150 -71 -194 -90 -253 -22 -65 -56 -160 -118 -328
l-25 -68 81 3 81 3 15 47 c8 26 19 48 25 50 6 2 65 1 131 -2 l120 -5 15 -45
c8 -25 20 -48 25 -52 6 -4 40 -8 78 -8 72 0 77 5 58 52 -6 13 -33 97 -61 188
-29 91 -71 224 -94 295 l-42 130 -97 3 c-72 2 -99 -1 -102 -10z m143 -282 c17
-59 29 -112 26 -117 -8 -14 -154 -11 -154 3 0 27 76 228 85 225 6 -2 25 -52
43 -111z"/>
<path d="M5197 6083 c-3 -4 -7 -154 -8 -333 l-4 -325 185 -6 c102 -4 188 -5
193 -2 4 2 7 33 7 68 l0 64 -117 3 -118 3 2 263 1 262 -46 0 c-26 0 -57 3 -68
6 -12 3 -24 2 -27 -3z"/>
<path d="M1785 5194 c-90 -23 -134 -53 -167 -117 -22 -44 -21 -117 2 -167 18
-40 89 -86 173 -115 107 -35 123 -44 137 -70 10 -18 9 -27 -4 -48 -35 -53
-138 -45 -199 16 l-40 40 -56 -31 c-30 -17 -57 -35 -59 -40 -7 -22 66 -98 122
-126 50 -26 68 -30 139 -30 123 1 190 36 228 119 38 81 12 181 -59 227 -20 14
-77 39 -126 56 -101 36 -126 54 -126 93 0 22 7 32 31 45 43 22 110 4 143 -38
l22 -29 57 33 c31 18 57 38 57 45 0 23 -99 112 -138 122 -51 14 -113 20 -137
15z"/>
<path d="M2429 5165 c-109 -40 -178 -116 -213 -234 -21 -72 -20 -126 3 -200
31 -99 85 -162 180 -208 48 -24 68 -28 146 -28 77 0 98 4 147 27 49 22 146
104 136 113 -11 10 -111 65 -118 65 -5 0 -21 -11 -35 -24 -48 -45 -158 -55
-225 -21 -69 36 -100 92 -100 182 1 120 65 194 175 201 76 5 122 -9 159 -47
l28 -29 59 31 c32 17 59 35 59 39 0 22 -80 92 -135 118 -55 26 -73 30 -146 29
-46 0 -100 -6 -120 -14z"/>
<path d="M2986 5129 c-3 -17 -6 -165 -6 -329 l0 -298 58 -4 c31 -3 63 -3 70
-1 8 4 12 36 13 112 1 58 2 115 3 126 1 19 8 20 111 20 l110 0 -4 -133 -3
-133 73 3 74 3 8 323 c5 178 7 326 4 328 -2 2 -35 5 -73 7 l-69 2 -3 -127 -3
-128 -104 0 c-64 0 -106 4 -111 11 -3 6 -6 64 -5 130 l2 119 -69 0 -69 0 -7
-31z"/>
<path d="M3930 5151 c-97 -20 -195 -97 -240 -186 -20 -40 -26 -69 -28 -142 -3
-81 -1 -98 21 -147 32 -70 92 -135 159 -171 69 -38 189 -47 270 -20 135 44
221 156 235 306 13 140 -87 299 -216 344 -55 19 -152 27 -201 16z m133 -142
c47 -13 106 -63 123 -106 21 -49 18 -139 -7 -190 -31 -65 -76 -94 -153 -100
-80 -7 -123 7 -168 55 -80 83 -78 212 5 294 55 54 120 70 200 47z"/>
<path d="M4725 5128 c-63 -20 -95 -41 -158 -101 -31 -30 -76 -137 -83 -197
-12 -101 36 -226 110 -290 112 -96 261 -115 393 -50 73 36 115 82 156 168 85
183 -18 415 -209 470 -49 14 -167 14 -209 0z m189 -142 c120 -50 155 -236 63
-334 -73 -78 -212 -80 -288 -3 -97 97 -74 272 43 330 50 25 132 28 182 7z"/>
<path d="M5337 4793 c-3 -181 -3 -330 0 -333 2 -3 90 -6 194 -8 l190 -3 -3 68
-3 68 -115 5 -115 5 0 263 0 262 -71 0 -71 0 -6 -327z"/>
</g>
</svg>
